<svg width="25" height="25" viewBox="0 0 25 25" fill="none" xmlns="http://www.w3.org/2000/svg">
<g clip-path="url(#clip0_14_204)">
<path d="M8.3681 8.03167L8.37537 8.0271C8.37577 8.02674 8.37618 8.02629 8.37684 8.02588L8.3681 8.03167Z" fill="#092233"/>
<path d="M8.73503 12.5423C8.82727 12.4331 8.9177 12.3309 9.00417 12.2378C9.19817 12.0315 9.37214 11.8737 9.53571 11.7564C9.59987 11.7099 9.66311 11.6702 9.72395 11.6375L9.82868 11.5827L9.86706 11.6948C9.87819 11.7289 9.8945 11.7607 9.91477 11.7902C9.92766 11.8084 9.94201 11.826 9.95827 11.8418C10.0883 11.9722 10.2928 11.9906 10.4439 11.8848C10.5551 11.8077 10.6168 11.6753 10.6054 11.5393L10.6009 11.4849L10.6057 11.4809L10.5747 11.4188C10.565 11.3966 10.553 11.3751 10.5395 11.356C10.5268 11.3373 10.5123 11.3203 10.4964 11.3043C10.4755 11.2833 10.4519 11.2646 10.4264 11.2491L10.4219 11.2467L10.4179 11.2435C10.3934 11.2248 10.3698 11.2089 10.3451 11.1954C10.2446 11.137 10.1196 11.1032 9.99211 11.1008C9.87282 11.0972 9.74524 11.1187 9.61345 11.1636C9.4986 11.2018 9.37893 11.2586 9.25769 11.3314C9.04802 11.4586 8.83571 11.6291 8.60891 11.853C8.50832 11.9528 8.40656 12.0621 8.30656 12.1773L8.16521 12.3412C8.12028 12.392 8.07238 12.4449 8.02268 12.497C7.82189 12.7093 7.61838 12.889 7.41784 13.0305C7.21149 13.1776 7.0008 13.2881 6.80901 13.3501C6.77976 13.3596 6.75075 13.368 6.72233 13.3747L6.58537 13.4105L6.5967 13.2694C6.60485 13.17 6.57741 13.069 6.51994 12.9859C6.50505 12.9644 6.48816 12.9446 6.46989 12.9263C6.32097 12.7776 6.08723 12.757 5.91413 12.877C5.73825 12.9995 5.67761 13.2359 5.77321 13.428L5.77522 13.432L5.77678 13.4363C5.79904 13.4939 5.82902 13.5464 5.86623 13.5934C5.88156 13.6124 5.89807 13.6308 5.91574 13.649C5.98352 13.7162 6.0698 13.773 6.1654 13.8112C6.38361 13.8995 6.65334 13.9094 6.94558 13.8391C7.20178 13.7778 7.46496 13.6594 7.72834 13.4868C7.97023 13.329 8.20774 13.1267 8.43454 12.8877C8.48962 12.8293 8.54304 12.7696 8.59338 12.712L8.66731 12.6242L8.73503 12.5423Z" fill="#092233"/>
<path d="M13.1374 14.5785C13.0323 14.7296 13.0503 14.9339 13.1803 15.0642C13.1966 15.0802 13.2139 15.0945 13.2324 15.1076C13.2618 15.1279 13.2936 15.1438 13.3274 15.1557L13.4401 15.1938L13.3843 15.2988C13.3518 15.3593 13.3125 15.4228 13.2664 15.4869C13.1485 15.6502 12.9913 15.8244 12.7844 16.0184C12.6919 16.1051 12.5896 16.1953 12.4796 16.2879L12.3988 16.3547L12.3113 16.4287C12.2522 16.4791 12.193 16.5328 12.1351 16.5876C11.8954 16.815 11.6939 17.052 11.5355 17.2945C11.3628 17.5576 11.2447 17.8208 11.1833 18.0768C11.1133 18.3694 11.123 18.6389 11.2111 18.8568C11.2495 18.953 11.3059 19.0389 11.3739 19.1068C11.3912 19.1244 11.4099 19.141 11.4298 19.1565C11.4759 19.1931 11.5283 19.2233 11.586 19.2456L11.5906 19.2472L11.5946 19.2492C11.7862 19.3454 12.0231 19.2845 12.1455 19.108C12.2658 18.9355 12.2449 18.701 12.0961 18.5527C12.0778 18.5345 12.0577 18.5177 12.0362 18.5022C11.9531 18.445 11.8523 18.4172 11.7528 18.4259L11.6118 18.4371L11.6472 18.3003C11.6542 18.2717 11.6627 18.2431 11.6724 18.2137C11.7346 18.0212 11.8454 17.8113 11.9915 17.6046C12.1338 17.4043 12.3131 17.2003 12.5254 16.9996C12.5777 16.9495 12.6302 16.9026 12.6822 16.8565L12.8454 16.7165C12.9607 16.6164 13.0698 16.5146 13.1692 16.4137C13.3936 16.1867 13.5643 15.9744 13.6907 15.7653C13.7641 15.644 13.8205 15.524 13.8595 15.4095C13.904 15.2771 13.9247 15.1495 13.9217 15.0302C13.9189 14.903 13.8853 14.7782 13.8269 14.6764C13.8134 14.6526 13.7977 14.6291 13.7792 14.6048L13.7758 14.6009L13.7732 14.5961C13.7575 14.5706 13.7388 14.5472 13.7179 14.5261C13.7023 14.5106 13.6852 14.4955 13.6669 14.4831C13.6472 14.4696 13.626 14.4569 13.5997 14.4458L13.5416 14.4168L13.5379 14.4216L13.4834 14.4168C13.3468 14.4056 13.2145 14.4676 13.1374 14.5785Z" fill="#092233"/>
<path d="M22.529 1.1163L20.4745 3.07538L21.9021 4.50292L23.8608 2.44804L22.529 1.1163Z" fill="#092233"/>
<path d="M24.977 0.695313L24.2822 0L23.9204 0.324414L23.6211 0.0246094L22.7103 0.8396L24.1374 2.26675L24.9528 1.3564L24.6534 1.05742L24.977 0.695313Z" fill="#092233"/>
<path d="M23.1718 4.20357C23.1197 4.15186 23.0426 4.14473 22.9993 4.18804L22.4503 4.73707C22.407 4.78077 22.4145 4.85791 22.4658 4.90997L22.8423 5.28643C22.8943 5.33848 22.9719 5.34522 23.0152 5.30196L23.5642 4.75293C23.6072 4.71001 23.6008 4.63248 23.5484 4.58038L23.1718 4.20357Z" fill="#092233"/>
<path d="M24.3485 3.02687C24.2965 2.9756 24.2193 2.96803 24.176 3.01178L23.627 3.56041C23.5837 3.60416 23.5904 3.68126 23.6425 3.73292L24.019 4.10978C24.0711 4.16227 24.1486 4.169 24.192 4.12564L24.7406 3.57623C24.7843 3.53331 24.7771 3.45543 24.7251 3.40372L24.3485 3.02687Z" fill="#092233"/>
<path d="M20.1124 2.5566C20.1645 2.60866 20.242 2.61544 20.285 2.57208L20.8344 2.02267C20.8772 1.97975 20.8709 1.90221 20.8185 1.85055L20.442 1.47408C20.3903 1.42159 20.3128 1.4152 20.2699 1.45817L19.7208 2.00758C19.6771 2.05128 19.6839 2.12843 19.7359 2.18014L20.1124 2.5566Z" fill="#092233"/>
<path d="M21.2891 1.38022C21.3412 1.43227 21.4183 1.43828 21.4616 1.39575L22.0111 0.846722C22.0544 0.803363 22.0472 0.725873 21.9955 0.673383L21.6186 0.297357C21.5666 0.245648 21.4895 0.238519 21.4461 0.281439L20.8967 0.830853C20.8537 0.874164 20.8605 0.950922 20.913 1.00341L21.2891 1.38022Z" fill="#092233"/>
<path d="M8.65729 14.6L10.4221 16.3646L10.9036 15.8836L9.13893 14.119L8.65729 14.6Z" fill="#092233"/>
<mask id="path-11-inside-1_14_204" fill="white">
<path d="M20.1537 3.38144L16.2412 7.13456C15.9218 6.86469 15.5975 6.61699 15.2694 6.39955C14.7999 6.08828 14.3226 5.83583 13.8402 5.65776C13.4785 5.5246 13.1134 5.43354 12.748 5.39301C12.1999 5.331 11.6498 5.38588 11.1193 5.57827C10.5886 5.76987 10.0809 6.09829 9.60862 6.57094C9.51223 6.66752 9.42019 6.77685 9.32874 6.89291C9.19202 7.06625 9.05647 7.25429 8.92327 7.42997C8.79046 7.60571 8.6595 7.76787 8.54265 7.88476C8.48045 7.94716 8.42278 7.99531 8.3763 8.02631L8.37508 8.02709C8.35403 8.04145 8.33357 8.05815 8.31487 8.07641C8.28289 8.10825 8.25701 8.14599 8.23909 8.18217C8.22122 8.21835 8.21048 8.25253 8.20354 8.28393C8.19041 8.34516 8.19143 8.39521 8.19422 8.43901C8.20076 8.52128 8.21726 8.58764 8.23499 8.65844C8.25091 8.71889 8.26839 8.7809 8.28567 8.84609C8.3469 9.07265 8.40296 9.33662 8.368 9.6185C8.35008 9.76005 8.31052 9.90595 8.23401 10.0618C8.15745 10.2168 8.04275 10.3822 7.87005 10.5547C7.75559 10.6692 7.61521 10.7869 7.44387 10.9061C7.23977 11.0484 7.05652 11.1419 6.89427 11.1995C6.75237 11.2504 6.6263 11.2742 6.51165 11.2806C6.3117 11.291 6.14392 11.2504 5.98689 11.1812C5.86946 11.128 5.75969 11.058 5.65813 10.9816C5.58181 10.9236 5.51004 10.862 5.44187 10.8019C5.39099 10.757 5.34207 10.7121 5.29314 10.6708C5.25637 10.639 5.22 10.6087 5.18045 10.5789C5.15081 10.5579 5.11985 10.536 5.08386 10.5158C5.05662 10.5015 5.02678 10.4855 4.99143 10.474C4.96482 10.4641 4.93518 10.4561 4.90178 10.4509C4.85188 10.4434 4.79168 10.4434 4.73128 10.4593C4.67063 10.4744 4.61262 10.5062 4.56887 10.5428C4.44129 10.6497 4.24705 10.7781 4.01731 10.9149C3.672 11.1216 3.2469 11.353 2.82229 11.6125C2.39715 11.8726 1.9718 12.16 1.61858 12.4935C1.57923 12.5305 1.54065 12.5678 1.50286 12.606C0.853689 13.254 0.425906 14.0013 0.205886 14.796C0.0402611 15.3919 -0.00934831 16.0141 0.0427025 16.6438C0.121218 17.588 0.427126 18.5472 0.916726 19.475C1.40647 20.4033 2.0801 21.301 2.90081 22.1219C3.6305 22.8517 4.42063 23.4647 5.23914 23.9358C6.46658 24.6423 7.75955 25.0314 9.00525 24.998C9.62761 24.9801 10.2372 24.8558 10.8131 24.6124C11.3889 24.3691 11.9302 24.0065 12.4169 23.52C12.4547 23.4818 12.4923 23.4436 12.5292 23.4039C12.7518 23.1685 12.953 22.9014 13.1401 22.6231C13.4205 22.2058 13.6684 21.7641 13.8926 21.3741C14.0043 21.1793 14.1103 20.998 14.2089 20.8402C14.3073 20.6828 14.3999 20.5492 14.4796 20.4542C14.5096 20.4176 14.5365 20.3731 14.5531 20.3246C14.5698 20.2777 14.5772 20.2284 14.5763 20.1838C14.5761 20.1409 14.5698 20.1023 14.5607 20.0686C14.5426 20.003 14.5169 19.9548 14.4912 19.9127C14.467 19.8729 14.4416 19.8388 14.4149 19.8054C14.3655 19.7434 14.3128 19.6846 14.2577 19.6225C14.1613 19.5144 14.0589 19.3971 13.9717 19.2667C13.9062 19.1693 13.8494 19.0651 13.8087 18.955C13.7782 18.8715 13.7566 18.7849 13.7465 18.6915C13.7313 18.5519 13.7411 18.3973 13.7951 18.2136C13.849 18.0311 13.9482 17.8201 14.1163 17.5783C14.2358 17.4074 14.3535 17.2666 14.468 17.1525C14.5964 17.0241 14.7204 16.9279 14.8389 16.8556C15.0472 16.7292 15.2388 16.6727 15.4217 16.652C15.6956 16.6219 15.9522 16.6763 16.1733 16.7355C16.2287 16.7502 16.2818 16.7657 16.3341 16.7801C16.3734 16.79 16.4118 16.7999 16.4513 16.8079C16.511 16.8206 16.5714 16.8317 16.6511 16.8294C16.6907 16.8286 16.7366 16.823 16.7886 16.8051C16.8399 16.7873 16.8988 16.7554 16.9461 16.7078C16.9648 16.6891 16.9823 16.668 16.9966 16.6457C17.0272 16.5997 17.0753 16.5415 17.1377 16.4796C17.2152 16.4025 17.3137 16.3174 17.4227 16.2308C17.5857 16.1004 17.7726 15.966 17.9523 15.83C18.1327 15.694 18.3069 15.5585 18.4516 15.4142C18.7315 15.1343 18.9612 14.8421 19.1413 14.5396C19.4574 14.0109 19.6216 13.45 19.6493 12.8835C19.6704 12.4581 19.6164 12.0304 19.5003 11.6058C19.3266 10.9689 19.0153 10.34 18.6038 9.72382C18.3804 9.38989 18.1256 9.05991 17.8481 8.73476L21.5957 4.82377L20.1537 3.38144ZM18.0766 10.1149C18.3648 10.5498 18.593 10.984 18.7496 11.4089C18.8669 11.7274 18.944 12.0407 18.9778 12.3476C19.0287 12.8063 18.9842 13.2484 18.828 13.6805C18.6717 14.1114 18.4022 14.5356 17.988 14.9498C17.9204 15.0178 17.829 15.0965 17.7232 15.1796C17.5662 15.3033 17.3805 15.4372 17.1965 15.5764C17.012 15.7163 16.83 15.861 16.6741 16.0168C16.6296 16.0613 16.5942 16.1114 16.5545 16.1591C16.5376 16.1551 16.5213 16.1512 16.5006 16.1456C16.3949 16.1178 16.2471 16.0732 16.0719 16.0383C15.9405 16.0128 15.7928 15.9921 15.6324 15.9886C15.3917 15.9834 15.1216 16.0168 14.8425 16.1253C14.5634 16.2331 14.2788 16.4143 14.0045 16.6891C13.8598 16.8333 13.7175 17.0043 13.5783 17.2042C13.4082 17.4487 13.2857 17.6829 13.2054 17.9075C13.1355 18.1042 13.0973 18.2947 13.0874 18.4736C13.0693 18.7892 13.1386 19.0703 13.2438 19.3044C13.3227 19.4801 13.4211 19.6308 13.5185 19.7596C13.5919 19.8562 13.6646 19.9409 13.729 20.0141C13.7771 20.0693 13.8211 20.117 13.8556 20.1576C13.8622 20.1651 13.8652 20.1695 13.8709 20.1763C13.7622 20.3238 13.6553 20.4852 13.5453 20.6684C13.3283 21.0313 13.0993 21.4519 12.8507 21.8586C12.6026 22.2653 12.3341 22.6573 12.0528 22.9539C12.0198 22.9885 11.9866 23.0226 11.9532 23.056C11.3794 23.6289 10.7384 23.9938 10.0512 24.1854C9.53557 24.3285 8.99319 24.373 8.43323 24.3269C7.59383 24.257 6.71604 23.981 5.8534 23.5259C5.17678 23.1697 4.51131 22.6994 3.87962 22.1388L8.04236 18.7988L7.13318 17.8893L6.224 16.9801L2.88167 21.1451C2.40047 20.6024 1.98762 20.0343 1.65462 19.4563C1.32508 18.8839 1.07302 18.3019 0.90823 17.7263C0.660964 16.8632 0.608523 16.0173 0.774245 15.2313C0.940408 14.4446 1.32146 13.7151 1.96629 13.0691C1.99968 13.0353 2.03386 13.0027 2.06883 12.9701C2.26682 12.7825 2.50672 12.6004 2.76531 12.4263C3.1533 12.1655 3.58142 11.9242 3.97464 11.698C4.17122 11.5859 4.35901 11.4766 4.5302 11.3692C4.64568 11.2973 4.74964 11.2253 4.84802 11.1526C4.87566 11.1764 4.90667 11.2035 4.94246 11.2352C5.05056 11.3314 5.19051 11.4579 5.36365 11.5771C5.49363 11.6669 5.64353 11.7528 5.81507 11.8188C5.94368 11.8682 6.08479 11.9067 6.23665 11.9246C6.46404 11.9532 6.7157 11.9365 6.9805 11.8602C7.24622 11.7838 7.52473 11.6487 7.81848 11.4444C8.01829 11.3052 8.1888 11.1629 8.33352 11.0178C8.65774 10.6942 8.85208 10.3547 8.9491 10.0299C9.02205 9.78544 9.04133 9.55205 9.0322 9.34218C9.02522 9.18515 9.00276 9.04086 8.97615 8.91284C8.95628 8.81704 8.93362 8.72998 8.91292 8.65483C8.89802 8.59799 8.88367 8.5475 8.87278 8.50576C8.86858 8.49067 8.86663 8.48071 8.8636 8.46762C8.91091 8.42827 8.9614 8.39287 9.00589 8.34833C9.10984 8.24457 9.20823 8.1289 9.30423 8.00883C9.44754 7.82875 9.58552 7.63754 9.71609 7.46498C9.84588 7.29164 9.9699 7.13657 10.0721 7.03447C10.3178 6.78915 10.567 6.59438 10.8187 6.4433C11.2597 6.18095 11.7077 6.05131 12.1717 6.02827C12.5196 6.01079 12.8776 6.05449 13.2445 6.15463C13.7941 6.30454 14.3636 6.58242 14.9344 6.96401C15.2119 7.14926 15.4898 7.35956 15.7658 7.59057L11.5617 11.6232L12.4601 12.5208L13.3588 13.4197L17.3924 9.21015C17.646 9.51074 17.8762 9.81284 18.0766 10.1149Z"/>
</mask>
<path d="M20.1537 3.38144L16.2412 7.13456C15.9218 6.86469 15.5975 6.61699 15.2694 6.39955C14.7999 6.08828 14.3226 5.83583 13.8402 5.65776C13.4785 5.5246 13.1134 5.43354 12.748 5.39301C12.1999 5.331 11.6498 5.38588 11.1193 5.57827C10.5886 5.76987 10.0809 6.09829 9.60862 6.57094C9.51223 6.66752 9.42019 6.77685 9.32874 6.89291C9.19202 7.06625 9.05647 7.25429 8.92327 7.42997C8.79046 7.60571 8.6595 7.76787 8.54265 7.88476C8.48045 7.94716 8.42278 7.99531 8.3763 8.02631L8.37508 8.02709C8.35403 8.04145 8.33357 8.05815 8.31487 8.07641C8.28289 8.10825 8.25701 8.14599 8.23909 8.18217C8.22122 8.21835 8.21048 8.25253 8.20354 8.28393C8.19041 8.34516 8.19143 8.39521 8.19422 8.43901C8.20076 8.52128 8.21726 8.58764 8.23499 8.65844C8.25091 8.71889 8.26839 8.7809 8.28567 8.84609C8.3469 9.07265 8.40296 9.33662 8.368 9.6185C8.35008 9.76005 8.31052 9.90595 8.23401 10.0618C8.15745 10.2168 8.04275 10.3822 7.87005 10.5547C7.75559 10.6692 7.61521 10.7869 7.44387 10.9061C7.23977 11.0484 7.05652 11.1419 6.89427 11.1995C6.75237 11.2504 6.6263 11.2742 6.51165 11.2806C6.3117 11.291 6.14392 11.2504 5.98689 11.1812C5.86946 11.128 5.75969 11.058 5.65813 10.9816C5.58181 10.9236 5.51004 10.862 5.44187 10.8019C5.39099 10.757 5.34207 10.7121 5.29314 10.6708C5.25637 10.639 5.22 10.6087 5.18045 10.5789C5.15081 10.5579 5.11985 10.536 5.08386 10.5158C5.05662 10.5015 5.02678 10.4855 4.99143 10.474C4.96482 10.4641 4.93518 10.4561 4.90178 10.4509C4.85188 10.4434 4.79168 10.4434 4.73128 10.4593C4.67063 10.4744 4.61262 10.5062 4.56887 10.5428C4.44129 10.6497 4.24705 10.7781 4.01731 10.9149C3.672 11.1216 3.2469 11.353 2.82229 11.6125C2.39715 11.8726 1.9718 12.16 1.61858 12.4935C1.57923 12.5305 1.54065 12.5678 1.50286 12.606C0.853689 13.254 0.425906 14.0013 0.205886 14.796C0.0402611 15.3919 -0.00934831 16.0141 0.0427025 16.6438C0.121218 17.588 0.427126 18.5472 0.916726 19.475C1.40647 20.4033 2.0801 21.301 2.90081 22.1219C3.6305 22.8517 4.42063 23.4647 5.23914 23.9358C6.46658 24.6423 7.75955 25.0314 9.00525 24.998C9.62761 24.9801 10.2372 24.8558 10.8131 24.6124C11.3889 24.3691 11.9302 24.0065 12.4169 23.52C12.4547 23.4818 12.4923 23.4436 12.5292 23.4039C12.7518 23.1685 12.953 22.9014 13.1401 22.6231C13.4205 22.2058 13.6684 21.7641 13.8926 21.3741C14.0043 21.1793 14.1103 20.998 14.2089 20.8402C14.3073 20.6828 14.3999 20.5492 14.4796 20.4542C14.5096 20.4176 14.5365 20.3731 14.5531 20.3246C14.5698 20.2777 14.5772 20.2284 14.5763 20.1838C14.5761 20.1409 14.5698 20.1023 14.5607 20.0686C14.5426 20.003 14.5169 19.9548 14.4912 19.9127C14.467 19.8729 14.4416 19.8388 14.4149 19.8054C14.3655 19.7434 14.3128 19.6846 14.2577 19.6225C14.1613 19.5144 14.0589 19.3971 13.9717 19.2667C13.9062 19.1693 13.8494 19.0651 13.8087 18.955C13.7782 18.8715 13.7566 18.7849 13.7465 18.6915C13.7313 18.5519 13.7411 18.3973 13.7951 18.2136C13.849 18.0311 13.9482 17.8201 14.1163 17.5783C14.2358 17.4074 14.3535 17.2666 14.468 17.1525C14.5964 17.0241 14.7204 16.9279 14.8389 16.8556C15.0472 16.7292 15.2388 16.6727 15.4217 16.652C15.6956 16.6219 15.9522 16.6763 16.1733 16.7355C16.2287 16.7502 16.2818 16.7657 16.3341 16.7801C16.3734 16.79 16.4118 16.7999 16.4513 16.8079C16.511 16.8206 16.5714 16.8317 16.6511 16.8294C16.6907 16.8286 16.7366 16.823 16.7886 16.8051C16.8399 16.7873 16.8988 16.7554 16.9461 16.7078C16.9648 16.6891 16.9823 16.668 16.9966 16.6457C17.0272 16.5997 17.0753 16.5415 17.1377 16.4796C17.2152 16.4025 17.3137 16.3174 17.4227 16.2308C17.5857 16.1004 17.7726 15.966 17.9523 15.83C18.1327 15.694 18.3069 15.5585 18.4516 15.4142C18.7315 15.1343 18.9612 14.8421 19.1413 14.5396C19.4574 14.0109 19.6216 13.45 19.6493 12.8835C19.6704 12.4581 19.6164 12.0304 19.5003 11.6058C19.3266 10.9689 19.0153 10.34 18.6038 9.72382C18.3804 9.38989 18.1256 9.05991 17.8481 8.73476L21.5957 4.82377L20.1537 3.38144ZM18.0766 10.1149C18.3648 10.5498 18.593 10.984 18.7496 11.4089C18.8669 11.7274 18.944 12.0407 18.9778 12.3476C19.0287 12.8063 18.9842 13.2484 18.828 13.6805C18.6717 14.1114 18.4022 14.5356 17.988 14.9498C17.9204 15.0178 17.829 15.0965 17.7232 15.1796C17.5662 15.3033 17.3805 15.4372 17.1965 15.5764C17.012 15.7163 16.83 15.861 16.6741 16.0168C16.6296 16.0613 16.5942 16.1114 16.5545 16.1591C16.5376 16.1551 16.5213 16.1512 16.5006 16.1456C16.3949 16.1178 16.2471 16.0732 16.0719 16.0383C15.9405 16.0128 15.7928 15.9921 15.6324 15.9886C15.3917 15.9834 15.1216 16.0168 14.8425 16.1253C14.5634 16.2331 14.2788 16.4143 14.0045 16.6891C13.8598 16.8333 13.7175 17.0043 13.5783 17.2042C13.4082 17.4487 13.2857 17.6829 13.2054 17.9075C13.1355 18.1042 13.0973 18.2947 13.0874 18.4736C13.0693 18.7892 13.1386 19.0703 13.2438 19.3044C13.3227 19.4801 13.4211 19.6308 13.5185 19.7596C13.5919 19.8562 13.6646 19.9409 13.729 20.0141C13.7771 20.0693 13.8211 20.117 13.8556 20.1576C13.8622 20.1651 13.8652 20.1695 13.8709 20.1763C13.7622 20.3238 13.6553 20.4852 13.5453 20.6684C13.3283 21.0313 13.0993 21.4519 12.8507 21.8586C12.6026 22.2653 12.3341 22.6573 12.0528 22.9539C12.0198 22.9885 11.9866 23.0226 11.9532 23.056C11.3794 23.6289 10.7384 23.9938 10.0512 24.1854C9.53557 24.3285 8.99319 24.373 8.43323 24.3269C7.59383 24.257 6.71604 23.981 5.8534 23.5259C5.17678 23.1697 4.51131 22.6994 3.87962 22.1388L8.04236 18.7988L7.13318 17.8893L6.224 16.9801L2.88167 21.1451C2.40047 20.6024 1.98762 20.0343 1.65462 19.4563C1.32508 18.8839 1.07302 18.3019 0.90823 17.7263C0.660964 16.8632 0.608523 16.0173 0.774245 15.2313C0.940408 14.4446 1.32146 13.7151 1.96629 13.0691C1.99968 13.0353 2.03386 13.0027 2.06883 12.9701C2.26682 12.7825 2.50672 12.6004 2.76531 12.4263C3.1533 12.1655 3.58142 11.9242 3.97464 11.698C4.17122 11.5859 4.35901 11.4766 4.5302 11.3692C4.64568 11.2973 4.74964 11.2253 4.84802 11.1526C4.87566 11.1764 4.90667 11.2035 4.94246 11.2352C5.05056 11.3314 5.19051 11.4579 5.36365 11.5771C5.49363 11.6669 5.64353 11.7528 5.81507 11.8188C5.94368 11.8682 6.08479 11.9067 6.23665 11.9246C6.46404 11.9532 6.7157 11.9365 6.9805 11.8602C7.24622 11.7838 7.52473 11.6487 7.81848 11.4444C8.01829 11.3052 8.1888 11.1629 8.33352 11.0178C8.65774 10.6942 8.85208 10.3547 8.9491 10.0299C9.02205 9.78544 9.04133 9.55205 9.0322 9.34218C9.02522 9.18515 9.00276 9.04086 8.97615 8.91284C8.95628 8.81704 8.93362 8.72998 8.91292 8.65483C8.89802 8.59799 8.88367 8.5475 8.87278 8.50576C8.86858 8.49067 8.86663 8.48071 8.8636 8.46762C8.91091 8.42827 8.9614 8.39287 9.00589 8.34833C9.10984 8.24457 9.20823 8.1289 9.30423 8.00883C9.44754 7.82875 9.58552 7.63754 9.71609 7.46498C9.84588 7.29164 9.9699 7.13657 10.0721 7.03447C10.3178 6.78915 10.567 6.59438 10.8187 6.4433C11.2597 6.18095 11.7077 6.05131 12.1717 6.02827C12.5196 6.01079 12.8776 6.05449 13.2445 6.15463C13.7941 6.30454 14.3636 6.58242 14.9344 6.96401C15.2119 7.14926 15.4898 7.35956 15.7658 7.59057L11.5617 11.6232L12.4601 12.5208L13.3588 13.4197L17.3924 9.21015C17.646 9.51074 17.8762 9.81284 18.0766 10.1149Z" fill="#092233" stroke="#092233" stroke-width="3.5" mask="url(#path-11-inside-1_14_204)"/>
</g>
<defs>
<clipPath id="clip0_14_204">
<rect width="25" height="25" fill="white"/>
</clipPath>
</defs>
</svg>
