<svg width="25" height="25" viewBox="0 0 25 25" fill="none" xmlns="http://www.w3.org/2000/svg">
<path d="M12.5 22.9167C18.2529 22.9167 22.9166 18.253 22.9166 12.5C22.9166 6.74704 18.2529 2.08334 12.5 2.08334C6.74701 2.08334 2.08331 6.74704 2.08331 12.5C2.08331 18.253 6.74701 22.9167 12.5 22.9167Z" stroke="#092233" stroke-width="1.75"/>
<path d="M12.5 17.7083V18.2292V18.75" stroke="#092233" stroke-width="1.75" stroke-linecap="round"/>
<path d="M12.5 6.25V6.77083V7.29167" stroke="#092233" stroke-width="1.75" stroke-linecap="round"/>
<path d="M15.625 9.89582C15.625 8.45758 14.2259 7.29166 12.5 7.29166C10.7741 7.29166 9.375 8.45758 9.375 9.89582C9.375 11.3341 10.7741 12.5 12.5 12.5C14.2259 12.5 15.625 13.6659 15.625 15.1042C15.625 16.5424 14.2259 17.7083 12.5 17.7083C10.7741 17.7083 9.375 16.5424 9.375 15.1042" stroke="#092233" stroke-width="1.75" stroke-linecap="round"/>
</svg>
