<svg width="464" height="48" viewBox="0 0 464 48" fill="none" xmlns="http://www.w3.org/2000/svg">
<path d="M14.696 46.384C10.44 46.384 7.032 45.584 4.472 43.984C1.912 42.352 0.632 39.872 0.632 36.544C0.632 34.784 0.936 33.44 1.544 32.512C2.152 31.584 3.048 31.12 4.232 31.12C5.096 31.12 5.8 31.344 6.344 31.792C6.888 32.24 7.16 32.816 7.16 33.52C7.16 34.16 7.112 34.72 7.016 35.2C7.016 35.328 6.984 35.552 6.92 35.872C6.888 36.192 6.872 36.528 6.872 36.88C6.872 38.32 7.592 39.392 9.032 40.096C10.504 40.8 12.552 41.152 15.176 41.152C17.896 41.152 20.024 40.672 21.56 39.712C23.096 38.72 23.864 37.344 23.864 35.584C23.864 34.496 23.512 33.568 22.808 32.8C22.104 32 21.224 31.344 20.168 30.832C19.112 30.288 17.624 29.632 15.704 28.864C13.24 27.904 11.224 26.992 9.656 26.128C8.12 25.264 6.792 24.096 5.672 22.624C4.584 21.12 4.04 19.264 4.04 17.056C4.04 14.752 4.648 12.704 5.864 10.912C7.112 9.12 8.888 7.728 11.192 6.736C13.528 5.744 16.264 5.248 19.4 5.248C21.736 5.248 23.88 5.6 25.832 6.304C27.784 6.976 29.336 8.016 30.488 9.424C31.672 10.832 32.264 12.56 32.264 14.608C32.264 16.624 31.96 18.144 31.352 19.168C30.744 20.192 29.848 20.704 28.664 20.704C27.832 20.704 27.128 20.448 26.552 19.936C26.008 19.424 25.736 18.816 25.736 18.112C25.736 17.504 25.784 16.944 25.88 16.432C25.976 15.472 26.024 14.864 26.024 14.608C26.024 13.264 25.368 12.24 24.056 11.536C22.744 10.832 21.112 10.48 19.16 10.48C16.408 10.48 14.296 10.992 12.824 12.016C11.384 13.008 10.664 14.416 10.664 16.24C10.664 17.456 11.032 18.496 11.768 19.36C12.536 20.224 13.48 20.944 14.6 21.52C15.72 22.096 17.288 22.784 19.304 23.584C21.736 24.576 23.688 25.472 25.16 26.272C26.632 27.072 27.88 28.16 28.904 29.536C29.96 30.912 30.488 32.608 30.488 34.624C30.488 38.4 29.048 41.312 26.168 43.36C23.32 45.376 19.496 46.384 14.696 46.384ZM59.0653 31.264C59.4813 31.264 59.8013 31.472 60.0253 31.888C60.2493 32.304 60.3613 32.832 60.3613 33.472C60.3613 35.008 59.8973 35.92 58.9693 36.208C57.0493 36.88 54.9373 37.264 52.6333 37.36C52.0253 40.048 50.8253 42.208 49.0333 43.84C47.2413 45.44 45.2093 46.24 42.9373 46.24C41.0173 46.24 39.3693 45.776 37.9933 44.848C36.6493 43.92 35.6253 42.688 34.9213 41.152C34.2173 39.616 33.8652 37.952 33.8652 36.16C33.8652 33.728 34.3293 31.568 35.2573 29.68C36.1853 27.76 37.4653 26.272 39.0973 25.216C40.7293 24.128 42.5373 23.584 44.5213 23.584C46.9533 23.584 48.9053 24.432 50.3773 26.128C51.8813 27.792 52.7613 29.856 53.0173 32.32C54.5213 32.224 56.3133 31.904 58.3933 31.36C58.6493 31.296 58.8733 31.264 59.0653 31.264ZM43.3213 41.152C44.3453 41.152 45.2253 40.736 45.9613 39.904C46.7293 39.072 47.2413 37.872 47.4973 36.304C46.5053 35.632 45.7373 34.752 45.1933 33.664C44.6813 32.576 44.4253 31.424 44.4253 30.208C44.4253 29.696 44.4733 29.184 44.5693 28.672H44.3293C43.0493 28.672 41.9773 29.296 41.1133 30.544C40.2813 31.76 39.8653 33.488 39.8653 35.728C39.8653 37.488 40.2013 38.832 40.8733 39.76C41.5773 40.688 42.3933 41.152 43.3213 41.152ZM82.8815 35.296C83.2975 35.296 83.6175 35.488 83.8415 35.872C84.0975 36.256 84.2255 36.784 84.2255 37.456C84.2255 38.736 83.9215 39.728 83.3135 40.432C81.8415 42.128 80.3215 43.52 78.7535 44.608C77.2175 45.696 75.4575 46.24 73.4735 46.24C71.8415 46.24 70.6095 45.776 69.7775 44.848C68.9455 43.888 68.5295 42.512 68.5295 40.72C68.5295 39.824 68.7535 38.224 69.2015 35.92C69.6175 33.904 69.8255 32.512 69.8255 31.744C69.8255 31.232 69.6495 30.976 69.2975 30.976C68.8815 30.976 68.2895 31.52 67.5215 32.608C66.7535 33.664 65.9855 35.072 65.2175 36.832C64.4495 38.592 63.8255 40.448 63.3455 42.4C62.7375 44.96 61.2335 46.24 58.8335 46.24C57.8735 46.24 57.2335 45.904 56.9135 45.232C56.6255 44.528 56.4815 43.28 56.4815 41.488C56.4815 40.464 56.4975 39.648 56.5295 39.04L56.5775 35.2C56.5775 30.272 57.0735 25.136 58.0655 19.792C59.0895 14.448 60.5775 9.968 62.5295 6.352C64.5135 2.704 66.8815 0.879997 69.6335 0.879997C71.1055 0.879997 72.2895 1.52 73.1855 2.8C74.1135 4.048 74.5775 5.68 74.5775 7.696C74.5775 10.928 73.6335 14.288 71.7455 17.776C69.8575 21.232 66.7855 25.28 62.5295 29.92C62.4335 31.584 62.3855 33.296 62.3855 35.056C63.4415 32.336 64.6095 30.128 65.8895 28.432C67.2015 26.704 68.4815 25.472 69.7295 24.736C71.0095 24 72.1775 23.632 73.2335 23.632C75.3135 23.632 76.3535 24.672 76.3535 26.752C76.3535 28 76.0015 30.256 75.2975 33.52C74.6895 36.304 74.3855 38.144 74.3855 39.04C74.3855 40.32 74.8495 40.96 75.7775 40.96C76.4175 40.96 77.1695 40.576 78.0335 39.808C78.9295 39.008 80.1135 37.728 81.5855 35.968C81.9695 35.52 82.4015 35.296 82.8815 35.296ZM68.6255 5.632C68.0495 5.632 67.4095 6.464 66.7055 8.128C66.0015 9.76 65.3135 11.984 64.6415 14.8C64.0015 17.584 63.4735 20.624 63.0575 23.92C65.0415 21.584 66.6735 19.04 67.9535 16.288C69.2655 13.536 69.9215 11.04 69.9215 8.8C69.9215 7.776 69.8095 6.992 69.5855 6.448C69.3615 5.904 69.0415 5.632 68.6255 5.632ZM101.743 35.296C102.159 35.296 102.479 35.488 102.703 35.872C102.959 36.256 103.087 36.784 103.087 37.456C103.087 38.736 102.783 39.728 102.175 40.432C100.991 41.872 99.3113 43.2 97.1353 44.416C94.9913 45.632 92.6873 46.24 90.2233 46.24C86.8633 46.24 84.2553 45.328 82.3993 43.504C80.5433 41.68 79.6152 39.184 79.6152 36.016C79.6152 33.808 80.0793 31.76 81.0073 29.872C81.9353 27.952 83.2153 26.432 84.8473 25.312C86.5113 24.192 88.3833 23.632 90.4633 23.632C92.3193 23.632 93.8073 24.192 94.9273 25.312C96.0473 26.4 96.6073 27.888 96.6073 29.776C96.6073 31.984 95.8073 33.888 94.2073 35.488C92.6393 37.056 89.9673 38.304 86.1913 39.232C86.9913 40.704 88.5113 41.44 90.7513 41.44C92.1913 41.44 93.8233 40.944 95.6473 39.952C97.5033 38.928 99.1033 37.6 100.447 35.968C100.831 35.52 101.263 35.296 101.743 35.296ZM89.6473 28.336C88.4633 28.336 87.4553 29.024 86.6233 30.4C85.8233 31.776 85.4233 33.44 85.4233 35.392V35.488C87.3113 35.04 88.7993 34.368 89.8873 33.472C90.9753 32.576 91.5193 31.536 91.5193 30.352C91.5193 29.744 91.3433 29.264 90.9913 28.912C90.6713 28.528 90.2233 28.336 89.6473 28.336ZM105.467 20.464C104.123 20.464 103.115 20.16 102.443 19.552C101.771 18.912 101.435 18.032 101.435 16.912C101.435 15.792 101.867 14.864 102.731 14.128C103.627 13.36 104.731 12.976 106.043 12.976C107.227 12.976 108.187 13.264 108.923 13.84C109.659 14.416 110.027 15.232 110.027 16.288C110.027 17.568 109.611 18.592 108.779 19.36C107.947 20.096 106.843 20.464 105.467 20.464ZM105.083 46.24C103.003 46.24 101.483 45.504 100.523 44.032C99.595 42.56 99.131 40.608 99.131 38.176C99.131 36.736 99.307 34.896 99.659 32.656C100.043 30.384 100.523 28.272 101.099 26.32C101.387 25.296 101.771 24.592 102.251 24.208C102.731 23.824 103.499 23.632 104.555 23.632C106.187 23.632 107.003 24.176 107.003 25.264C107.003 26.064 106.699 27.92 106.091 30.832C105.323 34.352 104.939 36.736 104.939 37.984C104.939 38.944 105.067 39.68 105.323 40.192C105.579 40.704 106.011 40.96 106.619 40.96C107.195 40.96 107.915 40.56 108.779 39.76C109.643 38.96 110.795 37.696 112.235 35.968C112.619 35.52 113.051 35.296 113.531 35.296C113.947 35.296 114.267 35.488 114.491 35.872C114.747 36.256 114.875 36.784 114.875 37.456C114.875 38.736 114.571 39.728 113.963 40.432C110.795 44.304 107.835 46.24 105.083 46.24ZM124.864 39.232C125.216 38.912 125.568 38.752 125.92 38.752C126.304 38.752 126.608 38.976 126.832 39.424C127.088 39.84 127.216 40.352 127.216 40.96C127.216 42.304 126.736 43.376 125.776 44.176C124.112 45.552 122.224 46.24 120.112 46.24C117.072 46.24 114.848 44.976 113.44 42.448C112.032 39.888 111.328 36.56 111.328 32.464C111.328 28.56 111.824 24.112 112.816 19.12C113.84 14.128 115.328 9.84 117.28 6.256C119.264 2.672 121.616 0.879997 124.336 0.879997C125.872 0.879997 127.072 1.6 127.936 3.04C128.832 4.448 129.28 6.48 129.28 9.136C129.28 12.944 128.224 17.36 126.112 22.384C124.032 27.408 121.184 32.368 117.568 37.264C117.792 38.576 118.192 39.52 118.768 40.096C119.344 40.672 120.128 40.96 121.12 40.96C121.664 40.96 122.272 40.8 122.944 40.48C123.648 40.16 124.288 39.744 124.864 39.232ZM123.28 5.632C122.544 5.632 121.712 6.96 120.784 9.616C119.856 12.272 119.04 15.568 118.336 19.504C117.632 23.44 117.248 27.216 117.184 30.832C119.456 27.088 121.264 23.344 122.608 19.6C123.952 15.824 124.624 12.384 124.624 9.28C124.624 6.848 124.176 5.632 123.28 5.632ZM153.847 46.24C151.991 46.24 149.895 46.08 147.559 45.76C146.279 45.6 145.399 45.264 144.919 44.752C144.439 44.24 144.231 43.408 144.295 42.256C144.519 39.088 145.047 35.184 145.879 30.544C146.711 25.872 147.719 21.376 148.903 17.056C149.127 16.256 149.575 15.696 150.247 15.376C150.919 15.056 151.799 14.896 152.887 14.896C154.839 14.896 155.815 15.44 155.815 16.528C155.815 16.976 155.719 17.488 155.527 18.064C154.695 20.624 153.863 24.064 153.031 28.384C152.199 32.672 151.607 36.768 151.255 40.672C152.215 40.768 153.303 40.816 154.519 40.816C160.119 40.816 164.295 39.12 167.047 35.728C169.831 32.336 171.223 27.808 171.223 22.144C171.223 18.336 170.135 15.392 167.959 13.312C165.783 11.232 162.711 10.192 158.743 10.192C156.183 10.192 153.639 10.592 151.111 11.392C148.615 12.192 146.359 13.248 144.343 14.56C143.927 14.848 143.479 14.992 142.999 14.992C142.455 14.992 142.023 14.768 141.703 14.32C141.383 13.84 141.223 13.264 141.223 12.592C141.223 11.824 141.351 11.2 141.607 10.72C141.863 10.208 142.295 9.744 142.903 9.328C145.111 7.824 147.703 6.688 150.679 5.92C153.655 5.12 156.519 4.72 159.271 4.72C163.175 4.72 166.551 5.408 169.399 6.784C172.247 8.128 174.439 10.112 175.975 12.736C177.511 15.36 178.279 18.528 178.279 22.24C178.279 27.072 177.319 31.296 175.399 34.912C173.479 38.496 170.679 41.28 166.999 43.264C163.319 45.248 158.935 46.24 153.847 46.24ZM202.9 35.296C203.316 35.296 203.636 35.488 203.859 35.872C204.116 36.256 204.244 36.784 204.244 37.456C204.244 38.736 203.94 39.728 203.332 40.432C202.148 41.872 200.468 43.2 198.292 44.416C196.148 45.632 193.844 46.24 191.38 46.24C188.02 46.24 185.412 45.328 183.556 43.504C181.7 41.68 180.771 39.184 180.771 36.016C180.771 33.808 181.236 31.76 182.164 29.872C183.092 27.952 184.372 26.432 186.004 25.312C187.668 24.192 189.54 23.632 191.62 23.632C193.476 23.632 194.964 24.192 196.084 25.312C197.204 26.4 197.764 27.888 197.764 29.776C197.764 31.984 196.964 33.888 195.364 35.488C193.796 37.056 191.124 38.304 187.348 39.232C188.148 40.704 189.668 41.44 191.908 41.44C193.348 41.44 194.98 40.944 196.804 39.952C198.66 38.928 200.26 37.6 201.604 35.968C201.988 35.52 202.42 35.296 202.9 35.296ZM190.804 28.336C189.62 28.336 188.612 29.024 187.78 30.4C186.98 31.776 186.58 33.44 186.58 35.392V35.488C188.468 35.04 189.956 34.368 191.044 33.472C192.132 32.576 192.676 31.536 192.676 30.352C192.676 29.744 192.5 29.264 192.148 28.912C191.828 28.528 191.38 28.336 190.804 28.336ZM226.975 35.296C227.391 35.296 227.711 35.488 227.935 35.872C228.191 36.256 228.319 36.784 228.319 37.456C228.319 38.736 228.015 39.728 227.407 40.432C225.935 42.128 224.415 43.52 222.847 44.608C221.311 45.696 219.551 46.24 217.567 46.24C215.935 46.24 214.703 45.776 213.871 44.848C213.039 43.888 212.623 42.512 212.623 40.72C212.623 39.824 212.847 38.224 213.295 35.92C213.711 33.904 213.919 32.512 213.919 31.744C213.919 31.232 213.743 30.976 213.391 30.976C212.975 30.976 212.383 31.52 211.615 32.608C210.847 33.664 210.079 35.072 209.311 36.832C208.543 38.592 207.919 40.448 207.439 42.4C206.831 44.96 205.327 46.24 202.927 46.24C201.967 46.24 201.327 45.904 201.007 45.232C200.719 44.528 200.575 43.28 200.575 41.488C200.575 40.464 200.591 39.648 200.623 39.04L200.671 35.2C200.671 30.272 201.167 25.136 202.159 19.792C203.183 14.448 204.671 9.968 206.623 6.352C208.607 2.704 210.975 0.879997 213.727 0.879997C215.199 0.879997 216.383 1.52 217.279 2.8C218.207 4.048 218.671 5.68 218.671 7.696C218.671 10.928 217.727 14.288 215.839 17.776C213.951 21.232 210.879 25.28 206.623 29.92C206.527 31.584 206.479 33.296 206.479 35.056C207.535 32.336 208.703 30.128 209.983 28.432C211.295 26.704 212.575 25.472 213.823 24.736C215.103 24 216.271 23.632 217.327 23.632C219.407 23.632 220.447 24.672 220.447 26.752C220.447 28 220.095 30.256 219.391 33.52C218.783 36.304 218.479 38.144 218.479 39.04C218.479 40.32 218.943 40.96 219.871 40.96C220.511 40.96 221.263 40.576 222.127 39.808C223.023 39.008 224.207 37.728 225.679 35.968C226.063 35.52 226.495 35.296 226.975 35.296ZM212.719 5.632C212.143 5.632 211.503 6.464 210.799 8.128C210.095 9.76 209.407 11.984 208.735 14.8C208.095 17.584 207.567 20.624 207.151 23.92C209.135 21.584 210.767 19.04 212.047 16.288C213.359 13.536 214.015 11.04 214.015 8.8C214.015 7.776 213.903 6.992 213.679 6.448C213.455 5.904 213.135 5.632 212.719 5.632ZM249.965 31.264C250.381 31.264 250.701 31.472 250.925 31.888C251.149 32.304 251.261 32.832 251.261 33.472C251.261 34.272 251.149 34.896 250.925 35.344C250.701 35.76 250.349 36.048 249.869 36.208C247.949 36.88 245.837 37.264 243.533 37.36C242.893 40.016 241.677 42.16 239.885 43.792C238.125 45.424 236.173 46.24 234.029 46.24C230.797 46.24 228.445 45.008 226.973 42.544C225.501 40.08 224.765 36.512 224.765 31.84C224.765 27.712 225.277 23.232 226.301 18.4C227.325 13.536 228.813 9.408 230.765 6.016C232.749 2.592 235.101 0.879997 237.821 0.879997C239.293 0.879997 240.477 1.52 241.373 2.8C242.269 4.048 242.717 5.68 242.717 7.696C242.717 10.32 242.221 12.928 241.229 15.52C240.237 18.112 238.589 20.832 236.285 23.68C238.429 23.84 240.173 24.736 241.517 26.368C242.861 27.968 243.661 29.952 243.917 32.32C245.421 32.224 247.213 31.904 249.293 31.36C249.485 31.296 249.709 31.264 249.965 31.264ZM236.717 5.632C236.077 5.632 235.373 6.592 234.605 8.512C233.869 10.4 233.181 12.976 232.541 16.24C231.901 19.504 231.421 23.072 231.101 26.944C233.213 23.072 234.893 19.664 236.141 16.72C237.421 13.744 238.061 11.104 238.061 8.8C238.061 7.776 237.933 6.992 237.677 6.448C237.453 5.904 237.133 5.632 236.717 5.632ZM234.221 41.152C235.213 41.152 236.093 40.736 236.861 39.904C237.629 39.072 238.141 37.872 238.397 36.304C237.405 35.632 236.637 34.752 236.093 33.664C235.581 32.576 235.325 31.424 235.325 30.208C235.325 29.76 235.389 29.152 235.517 28.384H235.373C234.061 28.384 232.957 29.04 232.061 30.352C231.197 31.632 230.765 33.36 230.765 35.536C230.765 37.36 231.101 38.752 231.773 39.712C232.477 40.672 233.293 41.152 234.221 41.152ZM253.021 46.24C251.037 46.24 249.453 45.52 248.269 44.08C247.085 42.64 246.493 40.752 246.493 38.416C246.493 35.856 247.085 33.44 248.269 31.168C249.453 28.864 251.021 27.024 252.973 25.648C254.957 24.24 257.053 23.536 259.261 23.536C259.965 23.536 260.429 23.68 260.653 23.968C260.909 24.224 261.117 24.704 261.277 25.408C261.949 25.28 262.653 25.216 263.389 25.216C264.957 25.216 265.741 25.776 265.741 26.896C265.741 27.568 265.501 29.168 265.021 31.696C264.285 35.376 263.917 37.936 263.917 39.376C263.917 39.856 264.029 40.24 264.253 40.528C264.509 40.816 264.829 40.96 265.213 40.96C265.821 40.96 266.557 40.576 267.421 39.808C268.285 39.008 269.453 37.728 270.925 35.968C271.309 35.52 271.741 35.296 272.221 35.296C272.637 35.296 272.957 35.488 273.181 35.872C273.437 36.256 273.565 36.784 273.565 37.456C273.565 38.736 273.261 39.728 272.653 40.432C271.341 42.064 269.949 43.44 268.477 44.56C267.005 45.68 265.581 46.24 264.205 46.24C263.149 46.24 262.173 45.888 261.277 45.184C260.413 44.448 259.757 43.456 259.309 42.208C257.645 44.896 255.549 46.24 253.021 46.24ZM254.749 41.392C255.453 41.392 256.125 40.976 256.765 40.144C257.405 39.312 257.869 38.208 258.157 36.832L259.933 28C258.589 28.032 257.341 28.544 256.189 29.536C255.069 30.496 254.173 31.776 253.501 33.376C252.829 34.976 252.493 36.672 252.493 38.464C252.493 39.456 252.685 40.192 253.069 40.672C253.485 41.152 254.045 41.392 254.749 41.392ZM278.591 47.296C276.927 47.296 275.647 46.912 274.751 46.144C273.887 45.376 273.455 44.512 273.455 43.552C273.455 42.72 273.759 42 274.367 41.392C274.975 40.784 275.871 40.48 277.055 40.48C277.471 40.48 277.951 40.528 278.495 40.624C279.071 40.688 279.503 40.736 279.791 40.768C279.759 39.936 279.567 39.152 279.215 38.416C278.895 37.68 278.479 36.976 277.967 36.304C277.455 35.6 276.975 34.992 276.527 34.48C275.535 36.368 274.543 37.936 273.551 39.184C272.591 40.432 271.535 41.616 270.383 42.736C269.807 43.312 269.199 43.6 268.559 43.6C268.047 43.6 267.631 43.424 267.311 43.072C266.991 42.688 266.831 42.224 266.831 41.68C266.831 41.04 267.055 40.448 267.503 39.904L268.127 39.136C269.887 36.96 271.215 35.168 272.111 33.76C272.655 32.832 273.295 31.6 274.031 30.064C274.767 28.496 275.487 26.88 276.191 25.216C276.799 23.808 278.063 23.104 279.983 23.104C280.879 23.104 281.503 23.184 281.855 23.344C282.207 23.504 282.383 23.76 282.383 24.112C282.383 24.304 282.319 24.608 282.191 25.024C282.063 25.44 281.887 25.856 281.663 26.272C281.087 27.424 280.799 28.4 280.799 29.2C280.799 29.68 280.959 30.208 281.279 30.784C281.631 31.36 282.159 32.08 282.863 32.944C283.887 34.288 284.655 35.44 285.167 36.4C285.711 37.328 285.983 38.352 285.983 39.472C285.983 39.792 285.951 40.24 285.887 40.816C287.455 40.208 289.295 38.592 291.407 35.968C291.791 35.52 292.223 35.296 292.703 35.296C293.119 35.296 293.439 35.488 293.663 35.872C293.919 36.256 294.047 36.784 294.047 37.456C294.047 38.672 293.743 39.664 293.135 40.432C291.535 42.416 289.999 43.776 288.527 44.512C287.087 45.216 285.295 45.6 283.151 45.664C281.871 46.752 280.351 47.296 278.591 47.296ZM311.556 35.296C311.972 35.296 312.292 35.488 312.516 35.872C312.772 36.256 312.9 36.784 312.9 37.456C312.9 38.736 312.596 39.728 311.988 40.432C310.612 42.128 309.108 43.52 307.476 44.608C305.844 45.696 303.972 46.24 301.86 46.24C295.332 46.24 292.068 41.648 292.068 32.464C292.068 31.056 292.116 29.632 292.212 28.192H290.34C289.38 28.192 288.724 28.016 288.372 27.664C288.052 27.312 287.892 26.752 287.892 25.984C287.892 24.192 288.612 23.296 290.052 23.296H292.788C293.332 19.776 294.164 16.56 295.284 13.648C296.404 10.736 297.748 8.416 299.316 6.688C300.916 4.96 302.628 4.096 304.452 4.096C305.796 4.096 306.852 4.688 307.62 5.872C308.388 7.056 308.772 8.544 308.772 10.336C308.772 15.296 306.692 19.616 302.532 23.296H307.908C308.42 23.296 308.788 23.408 309.012 23.632C309.236 23.856 309.348 24.272 309.348 24.88C309.348 27.088 307.54 28.192 303.924 28.192H298.068C298.004 29.792 297.972 31.04 297.972 31.936C297.972 35.264 298.356 37.6 299.124 38.944C299.924 40.288 301.172 40.96 302.868 40.96C304.244 40.96 305.46 40.544 306.516 39.712C307.572 38.88 308.82 37.632 310.26 35.968C310.644 35.52 311.076 35.296 311.556 35.296ZM303.156 8.704C302.676 8.704 302.132 9.312 301.524 10.528C300.948 11.712 300.388 13.376 299.844 15.52C299.332 17.632 298.9 19.984 298.548 22.576C300.436 20.944 301.844 19.12 302.772 17.104C303.732 15.056 304.212 13.2 304.212 11.536C304.212 9.648 303.86 8.704 303.156 8.704ZM315.616 20.464C314.272 20.464 313.264 20.16 312.592 19.552C311.92 18.912 311.584 18.032 311.584 16.912C311.584 15.792 312.016 14.864 312.88 14.128C313.776 13.36 314.88 12.976 316.192 12.976C317.376 12.976 318.336 13.264 319.072 13.84C319.808 14.416 320.176 15.232 320.176 16.288C320.176 17.568 319.76 18.592 318.928 19.36C318.096 20.096 316.992 20.464 315.616 20.464ZM311.008 46.24C309.984 46.24 309.28 46.032 308.896 45.616C308.512 45.2 308.32 44.544 308.32 43.648C308.32 43.392 308.352 42.944 308.416 42.304C308.928 36.448 309.776 31.12 310.96 26.32C311.216 25.328 311.632 24.64 312.208 24.256C312.816 23.84 313.776 23.632 315.088 23.632C316.464 23.632 317.152 24.192 317.152 25.312C317.152 25.472 317.12 25.776 317.056 26.224C315.616 33.072 314.752 38.816 314.464 43.456C314.4 44.48 314.096 45.2 313.552 45.616C313.008 46.032 312.16 46.24 311.008 46.24ZM341.167 46.24C339.983 46.24 339.135 45.984 338.623 45.472C338.111 44.928 337.855 43.92 337.855 42.448C337.855 41.456 337.951 40.192 338.143 38.656C338.367 37.088 338.719 34.944 339.199 32.224C340.031 27.2 340.687 22.848 341.167 19.168C341.455 16.864 341.599 14.944 341.599 13.408C341.599 11.968 341.071 11.248 340.015 11.248C339.183 11.248 338.175 11.68 336.991 12.544C335.839 13.376 334.559 14.72 333.151 16.576C332.703 17.184 332.207 17.488 331.663 17.488C331.215 17.488 330.815 17.28 330.463 16.864C330.143 16.416 329.983 15.92 329.983 15.376C329.983 14.864 330.079 14.352 330.271 13.84C330.495 13.296 330.847 12.688 331.327 12.016C332.863 9.872 334.575 8.224 336.463 7.072C338.351 5.888 340.239 5.296 342.127 5.296C343.887 5.296 345.231 5.856 346.159 6.976C347.119 8.096 347.599 9.728 347.599 11.872C347.599 12.736 347.519 13.76 347.359 14.944C347.199 16.096 347.055 17.04 346.927 17.776C346.799 18.512 346.703 19.024 346.639 19.312C348.463 14.096 350.511 10.464 352.783 8.416C355.055 6.336 357.551 5.296 360.271 5.296C362.351 5.296 363.983 6.032 365.167 7.504C366.383 8.976 366.991 11.056 366.991 13.744C366.991 14.8 366.847 16.112 366.559 17.68C368.159 13.264 370.031 10.096 372.175 8.176C374.319 6.256 376.783 5.296 379.567 5.296C381.807 5.296 383.519 6.016 384.703 7.456C385.919 8.896 386.527 10.912 386.527 13.504C386.527 14.912 386.319 16.624 385.903 18.64L382.975 32.368C382.655 33.968 382.495 35.344 382.495 36.496C382.495 37.84 382.799 38.848 383.407 39.52C384.047 40.192 384.927 40.528 386.047 40.528C387.103 40.528 388.127 40.176 389.119 39.472C390.143 38.768 391.343 37.6 392.719 35.968C393.103 35.52 393.535 35.296 394.015 35.296C394.431 35.296 394.751 35.488 394.975 35.872C395.231 36.256 395.359 36.784 395.359 37.456C395.359 38.704 395.055 39.696 394.447 40.432C392.783 42.448 391.135 43.92 389.503 44.848C387.871 45.776 386.159 46.24 384.367 46.24C381.647 46.24 379.519 45.44 377.983 43.84C376.447 42.208 375.679 40.032 375.679 37.312C375.679 35.424 376.063 32.688 376.831 29.104L378.751 20.32C378.815 20.032 378.927 19.52 379.087 18.784C379.247 18.048 379.375 17.36 379.471 16.72C379.567 16.048 379.615 15.392 379.615 14.752C379.615 13.632 379.391 12.8 378.943 12.256C378.527 11.68 377.919 11.392 377.119 11.392C375.615 11.392 374.031 12.368 372.367 14.32C370.735 16.24 369.167 19.44 367.663 23.92C366.191 28.4 364.991 34.224 364.063 41.392C363.839 43.312 363.439 44.608 362.863 45.28C362.319 45.92 361.423 46.24 360.175 46.24C359.087 46.24 358.287 45.984 357.775 45.472C357.295 44.96 357.055 44 357.055 42.592C357.055 41.28 357.231 39.568 357.583 37.456C357.935 35.312 358.383 32.8 358.927 29.92C360.399 22.176 361.135 17.184 361.135 14.944C361.135 13.728 360.895 12.832 360.415 12.256C359.967 11.68 359.279 11.392 358.351 11.392C356.783 11.392 355.167 12.288 353.503 14.08C351.839 15.84 350.207 18.992 348.607 23.536C347.039 28.048 345.727 34.16 344.671 41.872C344.447 43.504 344.111 44.64 343.663 45.28C343.247 45.92 342.415 46.24 341.167 46.24ZM396.388 46.24C394.948 46.24 393.764 45.584 392.836 44.272C391.94 42.928 391.492 41.264 391.492 39.28C391.492 36.88 391.652 34.688 391.972 32.704C392.292 30.688 392.82 28.56 393.556 26.32C393.876 25.36 394.324 24.672 394.9 24.256C395.476 23.84 396.388 23.632 397.636 23.632C398.34 23.632 398.82 23.744 399.076 23.968C399.364 24.192 399.508 24.528 399.508 24.976C399.508 25.232 399.332 26.096 398.98 27.568C398.66 28.752 398.404 29.824 398.212 30.784C397.572 34.144 397.252 36.384 397.252 37.504C397.252 38.176 397.332 38.656 397.492 38.944C397.652 39.2 397.908 39.328 398.26 39.328C398.74 39.328 399.332 38.848 400.036 37.888C400.772 36.928 401.54 35.472 402.34 33.52C403.172 31.568 403.972 29.168 404.74 26.32C404.996 25.36 405.38 24.672 405.892 24.256C406.436 23.84 407.236 23.632 408.292 23.632C409.028 23.632 409.54 23.728 409.828 23.92C410.116 24.08 410.26 24.4 410.26 24.88C410.26 25.68 409.86 27.872 409.06 31.456C408.164 35.552 407.716 38.08 407.716 39.04C407.716 39.648 407.844 40.128 408.1 40.48C408.356 40.8 408.692 40.96 409.108 40.96C409.748 40.96 410.5 40.576 411.364 39.808C412.26 39.008 413.444 37.728 414.916 35.968C415.3 35.52 415.732 35.296 416.212 35.296C416.628 35.296 416.948 35.488 417.172 35.872C417.428 36.256 417.556 36.784 417.556 37.456C417.556 38.736 417.252 39.728 416.644 40.432C415.268 42.128 413.78 43.52 412.18 44.608C410.612 45.696 408.82 46.24 406.804 46.24C405.268 46.24 404.132 45.648 403.396 44.464C402.692 43.28 402.34 41.616 402.34 39.472C401.796 41.648 400.98 43.328 399.892 44.512C398.804 45.664 397.636 46.24 396.388 46.24ZM422.591 47.296C420.927 47.296 419.647 46.912 418.751 46.144C417.887 45.376 417.455 44.512 417.455 43.552C417.455 42.72 417.759 42 418.367 41.392C418.975 40.784 419.871 40.48 421.055 40.48C421.471 40.48 421.951 40.528 422.495 40.624C423.071 40.688 423.503 40.736 423.791 40.768C423.759 39.936 423.567 39.152 423.215 38.416C422.895 37.68 422.479 36.976 421.967 36.304C421.455 35.6 420.975 34.992 420.527 34.48C419.535 36.368 418.543 37.936 417.551 39.184C416.591 40.432 415.535 41.616 414.383 42.736C413.807 43.312 413.199 43.6 412.559 43.6C412.047 43.6 411.631 43.424 411.311 43.072C410.991 42.688 410.831 42.224 410.831 41.68C410.831 41.04 411.055 40.448 411.503 39.904L412.127 39.136C413.887 36.96 415.215 35.168 416.111 33.76C416.655 32.832 417.295 31.6 418.031 30.064C418.767 28.496 419.487 26.88 420.191 25.216C420.799 23.808 422.063 23.104 423.983 23.104C424.879 23.104 425.503 23.184 425.855 23.344C426.207 23.504 426.383 23.76 426.383 24.112C426.383 24.304 426.319 24.608 426.191 25.024C426.063 25.44 425.887 25.856 425.663 26.272C425.087 27.424 424.799 28.4 424.799 29.2C424.799 29.68 424.959 30.208 425.279 30.784C425.631 31.36 426.159 32.08 426.863 32.944C427.887 34.288 428.655 35.44 429.167 36.4C429.711 37.328 429.983 38.352 429.983 39.472C429.983 39.792 429.951 40.24 429.887 40.816C431.455 40.208 433.295 38.592 435.407 35.968C435.791 35.52 436.223 35.296 436.703 35.296C437.119 35.296 437.439 35.488 437.663 35.872C437.919 36.256 438.047 36.784 438.047 37.456C438.047 38.672 437.743 39.664 437.135 40.432C435.535 42.416 433.999 43.776 432.527 44.512C431.087 45.216 429.295 45.6 427.151 45.664C425.871 46.752 424.351 47.296 422.591 47.296ZM440.436 20.464C439.092 20.464 438.084 20.16 437.412 19.552C436.74 18.912 436.404 18.032 436.404 16.912C436.404 15.792 436.836 14.864 437.7 14.128C438.596 13.36 439.7 12.976 441.012 12.976C442.196 12.976 443.156 13.264 443.892 13.84C444.628 14.416 444.996 15.232 444.996 16.288C444.996 17.568 444.58 18.592 443.748 19.36C442.916 20.096 441.812 20.464 440.436 20.464ZM440.052 46.24C437.972 46.24 436.452 45.504 435.492 44.032C434.564 42.56 434.1 40.608 434.1 38.176C434.1 36.736 434.276 34.896 434.628 32.656C435.012 30.384 435.492 28.272 436.068 26.32C436.356 25.296 436.74 24.592 437.22 24.208C437.7 23.824 438.468 23.632 439.524 23.632C441.156 23.632 441.972 24.176 441.972 25.264C441.972 26.064 441.668 27.92 441.06 30.832C440.292 34.352 439.908 36.736 439.908 37.984C439.908 38.944 440.036 39.68 440.292 40.192C440.548 40.704 440.98 40.96 441.588 40.96C442.164 40.96 442.884 40.56 443.748 39.76C444.612 38.96 445.764 37.696 447.204 35.968C447.588 35.52 448.02 35.296 448.5 35.296C448.916 35.296 449.236 35.488 449.46 35.872C449.716 36.256 449.844 36.784 449.844 37.456C449.844 38.736 449.54 39.728 448.932 40.432C445.764 44.304 442.804 46.24 440.052 46.24ZM454.888 46.24C451.848 46.24 449.464 45.36 447.736 43.6C446.04 41.808 445.192 39.456 445.192 36.544C445.192 33.952 445.704 31.68 446.728 29.728C447.752 27.776 449.08 26.272 450.712 25.216C452.344 24.16 454.056 23.632 455.848 23.632C457.608 23.632 458.968 24.16 459.928 25.216C460.92 26.24 461.416 27.568 461.416 29.2C461.416 30.544 461.112 31.68 460.504 32.608C459.928 33.536 459.16 34 458.2 34C457.592 34 457.096 33.856 456.712 33.568C456.36 33.28 456.184 32.88 456.184 32.368C456.184 32.144 456.216 31.888 456.28 31.6C456.344 31.312 456.392 31.104 456.424 30.976C456.584 30.496 456.664 30.048 456.664 29.632C456.664 29.216 456.552 28.896 456.328 28.672C456.136 28.448 455.848 28.336 455.464 28.336C454.728 28.336 454.04 28.672 453.4 29.344C452.76 29.984 452.248 30.864 451.864 31.984C451.48 33.104 451.288 34.336 451.288 35.68C451.288 37.504 451.656 38.896 452.392 39.856C453.16 40.784 454.232 41.248 455.608 41.248C456.696 41.248 457.688 40.928 458.584 40.288C459.512 39.648 460.424 38.704 461.32 37.456C461.704 36.976 462.136 36.736 462.616 36.736C463.032 36.736 463.352 36.928 463.576 37.312C463.832 37.696 463.96 38.224 463.96 38.896C463.96 40.048 463.688 41.04 463.144 41.872C462.28 43.216 461.144 44.288 459.736 45.088C458.328 45.856 456.712 46.24 454.888 46.24Z" fill="#092233"/>
</svg>
